<?xml version="1.0" encoding="UTF-8" standalone="no"?><!DOCTYPE svg PUBLIC "-//W3C//DTD SVG 1.1//EN" "http://www.w3.org/Graphics/SVG/1.1/DTD/svg11.dtd"><svg width="100%" height="100%" viewBox="0 0 1123 448" version="1.1" xmlns="http://www.w3.org/2000/svg" xmlns:xlink="http://www.w3.org/1999/xlink" xml:space="preserve" xmlns:serif="http://www.serif.com/" style="fill-rule:evenodd;clip-rule:evenodd;stroke-linejoin:round;stroke-miterlimit:2;"><path d="M122.025,175.009c-7.931,-8.05 -17.391,-14.487 -28.125,-19.143c-10.775,-4.679 -22.419,-7.044 -34.603,-7.044l-47.878,0c-3.113,0 -5.822,1.131 -8.053,3.362c-2.232,2.235 -3.366,4.944 -3.366,8.054l0,243.874c0,3.079 1.166,5.866 3.362,8.044c2.235,2.238 4.944,3.372 8.057,3.372c3.106,0 5.853,-1.191 7.947,-3.444c2.053,-2.218 3.097,-4.9 3.097,-7.965l0,-233.216l36.696,0c9.022,0 17.694,1.809 25.779,5.378c8.109,3.575 15.24,8.472 21.199,14.55c5.957,6.081 10.729,13.344 14.191,21.578c3.453,8.235 5.206,17 5.206,26.05c0,9.047 -1.747,17.672 -5.187,25.638c-3.463,8.012 -8.235,15.156 -14.184,21.234c-5.954,6.081 -13.075,10.975 -21.169,14.55c-8.056,3.563 -16.719,5.369 -25.738,5.369c-7.234,0 -11.381,3.884 -11.381,10.666c0,6.771 4.163,10.659 11.422,10.659c12.169,0 23.8,-2.3 34.572,-6.841c10.753,-4.528 20.225,-10.909 28.159,-18.965c7.894,-8.025 14.26,-17.472 18.916,-28.078c4.675,-10.647 7.05,-22.229 7.05,-34.419c0,-12.181 -2.369,-23.885 -7.038,-34.785c-4.656,-10.859 -11.028,-20.437 -18.931,-28.478Z" style="fill:#a7a9ac;fill-rule:nonzero;"/><path d="M334.697,173.844c-8.913,-8.782 -19.519,-15.788 -31.516,-20.825c-12.018,-5.038 -24.919,-7.591 -38.344,-7.591c-13.181,0 -25.834,2.556 -37.609,7.603c-11.747,5.035 -22.159,12.044 -30.95,20.828c-8.775,8.775 -15.844,19.182 -21.006,30.925c-5.178,11.775 -7.803,24.563 -7.803,38.007l0,161.703l0.025,0.381c0.325,2.662 1.487,5.084 3.444,7.197c2.093,2.259 4.84,3.456 7.953,3.456c3.109,0 5.859,-1.197 7.94,-3.453c2.056,-2.213 3.1,-4.769 3.1,-7.581l0,-161.703c0,-10.319 2.003,-20.172 5.956,-29.285c3.988,-9.165 9.413,-17.281 16.141,-24.122c6.719,-6.843 14.769,-12.393 23.931,-16.49c9.097,-4.072 18.813,-6.135 28.878,-6.135c10.313,0 20.225,2.063 29.46,6.141c9.287,4.106 17.465,9.659 24.312,16.503c6.85,6.85 12.404,14.969 16.507,24.135c4.078,9.109 6.14,18.953 6.14,29.253l0,134.006l-67.425,-69.503c-2.362,-2.353 -5.262,-3.547 -8.612,-3.547c-2.875,0 -5.494,1.197 -7.582,3.456c-2.049,2.222 -3.087,4.769 -3.087,7.581c0,3.36 1.069,6.132 3.144,8.207l86.356,88.975c2.356,2.365 5.134,3.562 8.247,3.562c4.681,0 7.303,-2.091 8.672,-3.837c1.822,-2.316 2.747,-4.738 2.747,-7.197l0,-161.703c0,-13.425 -2.625,-26.216 -7.807,-38.007c-5.168,-11.75 -12.303,-22.162 -21.212,-30.94Z" style="fill:#a7a9ac;fill-rule:nonzero;"/><path d="M497.206,288.3c-8.703,-6.131 -18.281,-11.625 -28.469,-16.322c-9.953,-4.597 -19.265,-9.497 -27.687,-14.566c-8.266,-4.971 -15.272,-10.671 -20.828,-16.946c-5.328,-6.004 -7.916,-13.235 -7.916,-22.094c0,-7.103 1.257,-13.822 3.731,-19.969c2.479,-6.153 5.894,-11.612 10.147,-16.231c4.219,-4.578 9.266,-8.206 15.004,-10.785c5.718,-2.571 11.818,-3.878 18.134,-3.878c12.781,0 23.5,4.853 32.844,14.916c2.356,2.359 5,3.559 7.865,3.559c3.06,0 5.807,-1.103 8.163,-3.29c2.375,-2.21 3.634,-5.022 3.634,-8.135c0,-3.106 -1.072,-5.75 -3.137,-7.818c-13.616,-14.141 -30.225,-21.313 -49.369,-21.313c-9.441,0 -18.503,1.934 -26.925,5.747c-8.375,3.791 -15.813,9.103 -22.097,15.778c-6.269,6.663 -11.294,14.459 -14.934,23.181c-3.663,8.757 -5.519,18.357 -5.519,28.532c0,12.434 3.119,23.065 9.259,31.603c5.96,8.297 13.444,15.59 22.247,21.665c8.628,5.975 18.244,11.391 28.559,16.103c10.029,4.585 19.376,9.472 27.772,14.532c8.225,4.965 15.2,10.715 20.741,17.087c5.319,6.131 7.906,13.538 7.906,22.641c0,6.85 -1.253,13.431 -3.728,19.562c-2.484,6.147 -5.897,11.597 -10.14,16.203c-4.216,4.563 -9.263,8.182 -15.007,10.763c-5.712,2.562 -11.812,3.862 -18.134,3.862c-12.891,0 -24.353,-3.303 -34.075,-9.825c-9.566,-6.415 -15.847,-16.106 -18.716,-28.987c-0.662,-2.303 -1.915,-4.309 -3.731,-5.972c-1.969,-1.787 -4.388,-2.694 -7.194,-2.694c-3.068,0 -5.747,1.038 -7.956,3.078c-2.297,2.119 -3.456,4.922 -3.456,8.335c0,1.065 0.175,2.031 0.522,2.881c2.1,9.038 5.606,17.103 10.421,23.975c4.847,6.931 10.701,12.831 17.388,17.534c6.684,4.704 14.1,8.335 22.047,10.797c7.981,2.469 16.369,3.719 24.931,3.719c9.475,0 18.556,-1.934 26.997,-5.753c8.419,-3.809 15.869,-9.128 22.156,-15.803c6.294,-6.672 11.275,-14.563 14.807,-23.447c3.534,-8.881 5.331,-18.413 5.331,-28.334c0,-12.691 -3.125,-23.46 -9.291,-32.025c-5.978,-8.294 -13.481,-15.65 -22.297,-21.866Z" style="fill:#a7a9ac;fill-rule:nonzero;"/><path d="M660.162,288.3c-8.696,-6.125 -18.275,-11.619 -28.475,-16.322c-9.937,-4.591 -19.253,-9.491 -27.681,-14.566c-8.281,-4.978 -15.287,-10.678 -20.831,-16.946c-5.325,-5.997 -7.913,-13.225 -7.913,-22.094c0,-7.116 1.257,-13.835 3.732,-19.969c2.475,-6.15 5.89,-11.612 10.137,-16.231c4.222,-4.578 9.272,-8.21 15.01,-10.785c5.722,-2.571 11.825,-3.878 18.134,-3.878c12.778,0 23.494,4.853 32.834,14.919c2.36,2.356 5.01,3.556 7.875,3.556c3.06,0 5.807,-1.103 8.166,-3.29c2.372,-2.21 3.625,-5.022 3.625,-8.135c0,-3.112 -1.066,-5.756 -3.131,-7.818c-13.622,-14.141 -30.232,-21.313 -49.369,-21.313c-9.444,0 -18.5,1.934 -26.928,5.744c-8.378,3.797 -15.813,9.109 -22.094,15.781c-6.265,6.656 -11.29,14.453 -14.937,23.181c-3.663,8.763 -5.522,18.36 -5.522,28.532c0,12.437 3.115,23.071 9.262,31.603c5.966,8.303 13.45,15.593 22.247,21.665c8.647,5.982 18.26,11.4 28.569,16.1c10.025,4.588 19.365,9.478 27.766,14.535c8.218,4.965 15.199,10.715 20.74,17.087c5.247,6.05 7.91,13.669 7.91,22.641c0,6.85 -1.26,13.431 -3.738,19.562c-2.484,6.157 -5.894,11.607 -10.137,16.203c-4.216,4.563 -9.263,8.185 -15.007,10.763c-5.706,2.562 -11.806,3.862 -18.131,3.862c-12.894,0 -24.356,-3.303 -34.081,-9.825c-9.563,-6.418 -15.844,-16.109 -18.713,-28.99c-0.665,-2.306 -1.915,-4.313 -3.728,-5.969c-1.966,-1.787 -4.387,-2.694 -7.191,-2.694c-3.071,0 -5.753,1.038 -7.971,3.085c-2.288,2.122 -3.45,4.925 -3.45,8.328c0,1.069 0.175,2.04 0.531,2.887c2.09,9.028 5.597,17.088 10.412,23.969c4.847,6.928 10.7,12.828 17.391,17.534c6.687,4.704 14.103,8.335 22.047,10.797c7.975,2.469 16.366,3.719 24.934,3.719c9.475,0 18.56,-1.934 26.997,-5.753c8.419,-3.809 15.872,-9.128 22.153,-15.803c6.294,-6.678 11.278,-14.566 14.81,-23.45c3.534,-8.878 5.325,-18.41 5.325,-28.331c0,-12.691 -3.125,-23.466 -9.288,-32.025c-5.978,-8.294 -13.475,-15.654 -22.291,-21.866Z" style="fill:#a7a9ac;fill-rule:nonzero;"/><path d="M987.597,394.581c-15.31,0 -29.959,-3.022 -43.538,-8.975c-13.6,-5.95 -25.618,-14.215 -35.709,-24.569c-10.091,-10.343 -18.234,-22.64 -24.209,-36.55c-5.947,-13.862 -8.963,-28.793 -8.963,-44.381c0,-15.328 3.013,-30.003 8.956,-43.6c5.972,-13.659 14.113,-25.772 24.204,-35.997c10.09,-10.234 22.118,-18.509 35.746,-24.6c13.585,-6.075 28.222,-9.15 43.513,-9.15c15.531,0 30.294,3.075 43.887,9.15c13.644,6.103 25.738,14.385 35.944,24.613c10.2,10.215 18.338,22.319 24.181,35.959c5.829,13.631 8.788,28.306 8.788,43.625c0,15.572 -2.963,30.513 -8.797,44.403c-5.844,13.894 -13.981,26.178 -24.184,36.516c-10.207,10.35 -22.288,18.619 -35.91,24.581c-13.584,5.953 -28.359,8.975 -43.909,8.975Zm124.628,-166.787c-7.034,-16.241 -16.766,-30.647 -28.928,-42.81c-12.159,-12.156 -26.628,-21.89 -43.009,-28.937c-16.416,-7.047 -34.207,-10.619 -52.885,-10.619c-18.422,0 -36.028,3.572 -52.325,10.625c-16.253,7.044 -30.653,16.775 -42.806,28.931c-12.169,12.169 -21.9,26.575 -28.928,42.81c-7.05,16.275 -10.625,33.875 -10.625,52.312c0,18.694 3.572,36.481 10.622,52.866c7.018,16.353 16.753,30.884 28.918,43.184c12.166,12.294 26.572,22.094 42.819,29.125c16.3,7.05 33.903,10.625 52.325,10.625c18.675,0 36.469,-3.575 52.885,-10.625c16.374,-7.031 30.85,-16.831 43.021,-29.125c12.163,-12.294 21.894,-26.825 28.919,-43.184c7.05,-16.397 10.625,-34.185 10.625,-52.866c0,-18.425 -3.575,-36.025 -10.628,-52.312Z" style="fill:#a7a9ac;fill-rule:nonzero;"/><path d="M917.847,105.591c-179.522,128.193 -91.459,255.303 -101.8,319.421c0,0 -161.481,-238.825 -101.481,-425.012c-7.8,65.019 8.384,172.659 64.237,164.384c54.328,-8.05 64.572,-44.312 139.044,-58.793Z" style="fill:#1b97d4;fill-rule:nonzero;"/><path d="M817.541,20.109c-30.51,-22.653 -49.01,-4.4 -58.188,14.791c-32.962,68.906 51.947,112.981 73.322,39.131c7.291,-25.181 5.156,-38.859 -15.134,-53.922Z" style="fill:#1b97d4;"/><path d="M751.394,329.978c2.887,106.431 21.559,149.544 25.9,92.175c2.156,-28.541 0,-40.047 0,-40.047l-25.9,-52.128Z" style="fill:#1b97d4;fill-rule:nonzero;"/></svg>